<svg width="22" height="22" viewBox="0 0 22 22" fill="none" xmlns="http://www.w3.org/2000/svg">
<g id="favorite">
<mask id="mask0_23_99" style="mask-type:alpha" maskUnits="userSpaceOnUse" x="0" y="0" width="22" height="22">
<rect id="Bounding box" width="22" height="22" fill="#D9D9D9"/>
</mask>
<g mask="url(#mask0_23_99)">
<path id="favorite_2" d="M10.9999 19.25L9.67075 18.0583C8.1277 16.6681 6.852 15.4688 5.84367 14.4604C4.83534 13.4521 4.03325 12.5469 3.43742 11.7448C2.84159 10.9427 2.42527 10.2056 2.18846 9.53334C1.95165 8.86111 1.83325 8.17361 1.83325 7.47084C1.83325 6.03472 2.3145 4.83542 3.277 3.87292C4.2395 2.91042 5.43881 2.42917 6.87492 2.42917C7.66936 2.42917 8.42561 2.59722 9.14367 2.93334C9.86172 3.26945 10.4805 3.74306 10.9999 4.35417C11.5194 3.74306 12.1381 3.26945 12.8562 2.93334C13.5742 2.59722 14.3305 2.42917 15.1249 2.42917C16.561 2.42917 17.7603 2.91042 18.7228 3.87292C19.6853 4.83542 20.1666 6.03472 20.1666 7.47084C20.1666 8.17361 20.0482 8.86111 19.8114 9.53334C19.5746 10.2056 19.1583 10.9427 18.5624 11.7448C17.9666 12.5469 17.1645 13.4521 16.1562 14.4604C15.1478 15.4688 13.8721 16.6681 12.3291 18.0583L10.9999 19.25ZM10.9999 16.775C12.4666 15.4611 13.6735 14.3344 14.6208 13.3948C15.568 12.4552 16.3166 11.6378 16.8666 10.9427C17.4166 10.2476 17.7985 9.62882 18.0124 9.08646C18.2263 8.5441 18.3333 8.00556 18.3333 7.47084C18.3333 6.55417 18.0277 5.79028 17.4166 5.17917C16.8055 4.56806 16.0416 4.2625 15.1249 4.2625C14.4069 4.2625 13.7423 4.46493 13.1312 4.86979C12.5201 5.27465 12.0999 5.79028 11.8708 6.41667H10.1291C9.89992 5.79028 9.47978 5.27465 8.86867 4.86979C8.25756 4.46493 7.59297 4.2625 6.87492 4.2625C5.95825 4.2625 5.19436 4.56806 4.58325 5.17917C3.97214 5.79028 3.66659 6.55417 3.66659 7.47084C3.66659 8.00556 3.77353 8.5441 3.98742 9.08646C4.20131 9.62882 4.58325 10.2476 5.13325 10.9427C5.68325 11.6378 6.43186 12.4552 7.37909 13.3948C8.32631 14.3344 9.53325 15.4611 10.9999 16.775Z" fill="#00BF9A" fill-opacity="0.97"/>
</g>
</g>
</svg>
